# xmcd
#
# Track frame offsets:
# 150
# 10367
# 20977
# 34210
# 48370
# 59605
# 68945
# 84652
# 96682
# 113082
#
# Disc length: 1730 seconds
#
#
# Revision: 0
# Processed by: cddbd v1.4PL0 Copyright (c) Steve Scherf et al.
# Submitted via: FreeRIP 2.35 
#
DISCID=9106c00a
DTITLE=Anne Murray - The Classics - The Early Years
DYEAR=1900
DGENRE=Country
TTITLE0=Some Birds for Baby
TTITLE1=It's All Over
TTITLE2=All The Time
TTITLE3=Buffalo In the Park
TTITLE4=For My Baby
TTITLE5=Paths of Victory
TTITLE6=David's Song
TTITLE7=The Last Thing On My Mind
TTITLE8=Both Sides Now
TTITLE9=There Goes My Everything
EXTD=
EXTT0=
EXTT1=
EXTT2=
EXTT3=
EXTT4=
EXTT5=
EXTT6=
EXTT7=
EXTT8=
EXTT9=
PLAYORDER=
